<svg width="232" height="100" viewBox="0 0 232 100" fill="none" xmlns="http://www.w3.org/2000/svg">
<g clip-path="url(#clip0_1_42)">
<path d="M26.385 21.39C26.2644 21.5136 26.1722 21.662 26.115 21.825C26.0772 21.9979 26.0772 22.177 26.115 22.35L27 28.245C27.0789 28.705 27.0269 29.178 26.85 29.61C26.6703 30.0464 26.3681 30.4215 25.98 30.69C25.5952 30.9604 25.1441 31.1211 24.675 31.155C24.2077 31.1741 23.7446 31.0597 23.34 30.825L18.555 28.17C18.3948 28.0798 18.2138 28.0333 18.03 28.035C17.8414 28.0334 17.6556 28.0799 17.49 28.17L12.735 30.825C12.3206 31.047 11.8549 31.1557 11.385 31.14C11.0371 31.1172 10.6979 31.0221 10.3889 30.8607C10.0799 30.6993 9.80796 30.4752 9.59054 30.2027C9.37311 29.9302 9.21495 29.6154 9.12618 29.2783C9.0374 28.9411 9.01997 28.5892 9.07498 28.245L10.035 22.35C10.0801 22.1779 10.0801 21.9971 10.035 21.825C9.98895 21.6604 9.9011 21.5105 9.77998 21.39L5.56498 17.145C5.25041 16.8129 5.02807 16.4044 4.91998 15.96C4.80017 15.518 4.80017 15.052 4.91998 14.61C5.08599 14.1743 5.36568 13.791 5.72998 13.5C6.08184 13.2037 6.5065 13.0069 6.95998 12.93L12.495 12.09C12.6736 12.0578 12.8427 11.9861 12.99 11.88C13.136 11.7686 13.2541 11.6248 13.335 11.46L15.735 6.29998C15.9339 5.87007 16.2513 5.50582 16.65 5.24998C17.0514 4.99517 17.517 4.85986 17.9925 4.85986C18.4679 4.85986 18.9336 4.99517 19.335 5.24998C19.7337 5.50582 20.0511 5.87007 20.25 6.29998L22.665 11.46C22.7411 11.6278 22.8601 11.7727 23.01 11.88C23.1556 11.989 23.3254 12.061 23.505 12.09L29.04 12.93C29.4935 13.0069 29.9181 13.2037 30.27 13.5C30.6145 13.8026 30.8731 14.1906 31.02 14.625C31.1398 15.067 31.1398 15.533 31.02 15.975C30.9119 16.4194 30.6896 16.8279 30.375 17.16L26.385 21.39Z" fill="#1B1B1D"/>
</g>
<g clip-path="url(#clip1_1_42)">
<path d="M62.385 21.39C62.2644 21.5136 62.1722 21.662 62.115 21.825C62.0772 21.9979 62.0772 22.177 62.115 22.35L63 28.245C63.0789 28.705 63.0269 29.178 62.85 29.61C62.6703 30.0464 62.3681 30.4215 61.98 30.69C61.5952 30.9604 61.1441 31.1211 60.675 31.155C60.2077 31.1741 59.7446 31.0597 59.34 30.825L54.555 28.17C54.3948 28.0798 54.2138 28.0333 54.03 28.035C53.8414 28.0334 53.6556 28.0799 53.49 28.17L48.735 30.825C48.3206 31.047 47.8549 31.1557 47.385 31.14C47.0371 31.1172 46.6979 31.0221 46.3889 30.8607C46.0799 30.6993 45.808 30.4752 45.5905 30.2027C45.3731 29.9302 45.215 29.6154 45.1262 29.2783C45.0374 28.9411 45.02 28.5892 45.075 28.245L46.035 22.35C46.0801 22.1779 46.0801 21.9971 46.035 21.825C45.989 21.6604 45.9011 21.5105 45.78 21.39L41.565 17.145C41.2504 16.8129 41.0281 16.4044 40.92 15.96C40.8002 15.518 40.8002 15.052 40.92 14.61C41.086 14.1743 41.3657 13.791 41.73 13.5C42.0818 13.2037 42.5065 13.0069 42.96 12.93L48.495 12.09C48.6736 12.0578 48.8427 11.9861 48.99 11.88C49.136 11.7686 49.2541 11.6248 49.335 11.46L51.735 6.29998C51.9339 5.87007 52.2513 5.50582 52.65 5.24998C53.0514 4.99517 53.517 4.85986 53.9925 4.85986C54.4679 4.85986 54.9336 4.99517 55.335 5.24998C55.7337 5.50582 56.0511 5.87007 56.25 6.29998L58.665 11.46C58.7411 11.6278 58.8601 11.7727 59.01 11.88C59.1556 11.989 59.3254 12.061 59.505 12.09L65.04 12.93C65.4935 13.0069 65.9181 13.2037 66.27 13.5C66.6145 13.8026 66.8731 14.1906 67.02 14.625C67.1398 15.067 67.1398 15.533 67.02 15.975C66.9119 16.4194 66.6896 16.8279 66.375 17.16L62.385 21.39Z" fill="#1B1B1D"/>
</g>
<g clip-path="url(#clip2_1_42)">
<path d="M98.385 21.39C98.2644 21.5136 98.1722 21.662 98.115 21.825C98.0772 21.9979 98.0772 22.177 98.115 22.35L99 28.245C99.0789 28.705 99.0269 29.178 98.85 29.61C98.6703 30.0464 98.3681 30.4215 97.98 30.69C97.5952 30.9604 97.1441 31.1211 96.675 31.155C96.2077 31.1741 95.7446 31.0597 95.34 30.825L90.555 28.17C90.3948 28.0798 90.2138 28.0333 90.03 28.035C89.8414 28.0334 89.6556 28.0799 89.49 28.17L84.735 30.825C84.3206 31.047 83.8549 31.1557 83.385 31.14C83.0371 31.1172 82.6979 31.0221 82.3889 30.8607C82.0799 30.6993 81.808 30.4752 81.5905 30.2027C81.3731 29.9302 81.215 29.6154 81.1262 29.2783C81.0374 28.9411 81.02 28.5892 81.075 28.245L82.035 22.35C82.0801 22.1779 82.0801 21.9971 82.035 21.825C81.989 21.6604 81.9011 21.5105 81.78 21.39L77.565 17.145C77.2504 16.8129 77.0281 16.4044 76.92 15.96C76.8002 15.518 76.8002 15.052 76.92 14.61C77.086 14.1743 77.3657 13.791 77.73 13.5C78.0818 13.2037 78.5065 13.0069 78.96 12.93L84.495 12.09C84.6736 12.0578 84.8427 11.9861 84.99 11.88C85.136 11.7686 85.2541 11.6248 85.335 11.46L87.735 6.29998C87.9339 5.87007 88.2513 5.50582 88.65 5.24998C89.0514 4.99517 89.517 4.85986 89.9925 4.85986C90.4679 4.85986 90.9336 4.99517 91.335 5.24998C91.7337 5.50582 92.0511 5.87007 92.25 6.29998L94.665 11.46C94.7411 11.6278 94.8601 11.7727 95.01 11.88C95.1556 11.989 95.3254 12.061 95.505 12.09L101.04 12.93C101.493 13.0069 101.918 13.2037 102.27 13.5C102.614 13.8026 102.873 14.1906 103.02 14.625C103.14 15.067 103.14 15.533 103.02 15.975C102.912 16.4194 102.69 16.8279 102.375 17.16L98.385 21.39Z" fill="#1B1B1D"/>
</g>
<g clip-path="url(#clip3_1_42)">
<path d="M134.385 21.39C134.264 21.5136 134.172 21.662 134.115 21.825C134.077 21.9979 134.077 22.177 134.115 22.35L135 28.245C135.079 28.705 135.027 29.178 134.85 29.61C134.67 30.0464 134.368 30.4215 133.98 30.69C133.595 30.9604 133.144 31.1211 132.675 31.155C132.208 31.1741 131.745 31.0597 131.34 30.825L126.555 28.17C126.395 28.0798 126.214 28.0333 126.03 28.035C125.841 28.0334 125.656 28.0799 125.49 28.17L120.735 30.825C120.321 31.047 119.855 31.1557 119.385 31.14C119.037 31.1172 118.698 31.0221 118.389 30.8607C118.08 30.6993 117.808 30.4752 117.591 30.2027C117.373 29.9302 117.215 29.6154 117.126 29.2783C117.037 28.9411 117.02 28.5892 117.075 28.245L118.035 22.35C118.08 22.1779 118.08 21.9971 118.035 21.825C117.989 21.6604 117.901 21.5105 117.78 21.39L113.565 17.145C113.25 16.8129 113.028 16.4044 112.92 15.96C112.8 15.518 112.8 15.052 112.92 14.61C113.086 14.1743 113.366 13.791 113.73 13.5C114.082 13.2037 114.507 13.0069 114.96 12.93L120.495 12.09C120.674 12.0578 120.843 11.9861 120.99 11.88C121.136 11.7686 121.254 11.6248 121.335 11.46L123.735 6.29998C123.934 5.87007 124.251 5.50582 124.65 5.24998C125.051 4.99517 125.517 4.85986 125.992 4.85986C126.468 4.85986 126.934 4.99517 127.335 5.24998C127.734 5.50582 128.051 5.87007 128.25 6.29998L130.665 11.46C130.741 11.6278 130.86 11.7727 131.01 11.88C131.156 11.989 131.325 12.061 131.505 12.09L137.04 12.93C137.493 13.0069 137.918 13.2037 138.27 13.5C138.614 13.8026 138.873 14.1906 139.02 14.625C139.14 15.067 139.14 15.533 139.02 15.975C138.912 16.4194 138.69 16.8279 138.375 17.16L134.385 21.39Z" fill="#1B1B1D"/>
</g>
<g clip-path="url(#clip4_1_42)">
<path d="M170.385 21.39C170.264 21.5136 170.172 21.662 170.115 21.825C170.077 21.9979 170.077 22.177 170.115 22.35L171 28.245C171.079 28.705 171.027 29.178 170.85 29.61C170.67 30.0464 170.368 30.4215 169.98 30.69C169.595 30.9604 169.144 31.1211 168.675 31.155C168.208 31.1741 167.745 31.0597 167.34 30.825L162.555 28.17C162.395 28.0798 162.214 28.0333 162.03 28.035C161.841 28.0334 161.656 28.0799 161.49 28.17L156.735 30.825C156.321 31.047 155.855 31.1557 155.385 31.14C155.037 31.1172 154.698 31.0221 154.389 30.8607C154.08 30.6993 153.808 30.4752 153.591 30.2027C153.373 29.9302 153.215 29.6154 153.126 29.2783C153.037 28.9411 153.02 28.5892 153.075 28.245L154.035 22.35C154.08 22.1779 154.08 21.9971 154.035 21.825C153.989 21.6604 153.901 21.5105 153.78 21.39L149.565 17.145C149.25 16.8129 149.028 16.4044 148.92 15.96C148.8 15.518 148.8 15.052 148.92 14.61C149.086 14.1743 149.366 13.791 149.73 13.5C150.082 13.2037 150.507 13.0069 150.96 12.93L156.495 12.09C156.674 12.0578 156.843 11.9861 156.99 11.88C157.136 11.7686 157.254 11.6248 157.335 11.46L159.735 6.29998C159.934 5.87007 160.251 5.50582 160.65 5.24998C161.051 4.99517 161.517 4.85986 161.992 4.85986C162.468 4.85986 162.934 4.99517 163.335 5.24998C163.734 5.50582 164.051 5.87007 164.25 6.29998L166.665 11.46C166.741 11.6278 166.86 11.7727 167.01 11.88C167.156 11.989 167.325 12.061 167.505 12.09L173.04 12.93C173.493 13.0069 173.918 13.2037 174.27 13.5C174.614 13.8026 174.873 14.1906 175.02 14.625C175.14 15.067 175.14 15.533 175.02 15.975C174.912 16.4194 174.69 16.8279 174.375 17.16L170.385 21.39Z" fill="#1B1B1D"/>
</g>
<path d="M0.379985 65.34H10.507V63.915H7.78999H7.46698H3.03998L6.80198 58.291V64.447V64.656V68H8.41699V54.7H7.75199L0.379985 65.34ZM12.8821 67.24C12.8821 67.5187 12.9835 67.7657 13.1861 67.981C13.4015 68.1837 13.6485 68.285 13.9271 68.285C14.2185 68.285 14.4655 68.1837 14.6681 67.981C14.8708 67.7657 14.9721 67.5187 14.9721 67.24C14.9721 66.9487 14.8708 66.7017 14.6681 66.499C14.4655 66.2963 14.2185 66.195 13.9271 66.195C13.6485 66.195 13.4015 66.2963 13.1861 66.499C12.9835 66.7017 12.8821 66.9487 12.8821 67.24ZM25.2284 59.07C25.2284 59.678 25.0954 60.2163 24.8294 60.685C24.5761 61.1537 24.2214 61.5273 23.7654 61.806C23.3221 62.072 22.8154 62.205 22.2454 62.205C21.6754 62.205 21.1624 62.072 20.7064 61.806C20.2631 61.5273 19.9084 61.1537 19.6424 60.685C19.3891 60.2163 19.2624 59.678 19.2624 59.07C19.2624 58.462 19.3891 57.93 19.6424 57.474C19.9084 57.0053 20.2631 56.638 20.7064 56.372C21.1624 56.106 21.6754 55.973 22.2454 55.973C22.8154 55.973 23.3221 56.106 23.7654 56.372C24.2214 56.638 24.5761 57.0053 24.8294 57.474C25.0954 57.93 25.2284 58.462 25.2284 59.07ZM21.4474 68L25.9314 61.825C26.1848 61.4703 26.3874 61.0587 26.5394 60.59C26.6914 60.1213 26.7674 59.6147 26.7674 59.07C26.7674 58.158 26.5648 57.36 26.1594 56.676C25.7668 55.992 25.2284 55.46 24.5444 55.08C23.8731 54.7 23.1068 54.51 22.2454 54.51C21.3968 54.51 20.6304 54.7 19.9464 55.08C19.2624 55.46 18.7178 55.992 18.3124 56.676C17.9198 57.36 17.7234 58.158 17.7234 59.07C17.7234 59.678 17.8248 60.248 18.0274 60.78C18.2301 61.2993 18.5088 61.7553 18.8634 62.148C19.2308 62.5407 19.6488 62.8447 20.1174 63.06C20.5988 63.2753 21.1118 63.383 21.6564 63.383C22.0871 63.383 22.4671 63.3323 22.7964 63.231C23.1384 63.1297 23.4361 62.9207 23.6894 62.604L23.5754 62.509L19.4144 68H21.4474ZM34.082 63.63C34.082 64.504 34.2783 65.2893 34.671 65.986C35.0763 66.67 35.621 67.2083 36.305 67.601C36.989 67.9937 37.7553 68.19 38.604 68.19C39.4653 68.19 40.2316 67.9937 40.903 67.601C41.587 67.2083 42.1253 66.67 42.518 65.986C42.9233 65.2893 43.126 64.504 43.126 63.63C43.126 62.7433 42.9233 61.958 42.518 61.274C42.1253 60.59 41.587 60.0517 40.903 59.659C40.2316 59.2663 39.4653 59.07 38.604 59.07C37.7553 59.07 36.989 59.2663 36.305 59.659C35.621 60.0517 35.0763 60.59 34.671 61.274C34.2783 61.958 34.082 62.7433 34.082 63.63ZM35.621 63.63C35.621 63.022 35.7476 62.4837 36.001 62.015C36.267 61.5337 36.6216 61.16 37.065 60.894C37.521 60.628 38.034 60.495 38.604 60.495C39.174 60.495 39.6806 60.628 40.124 60.894C40.58 61.16 40.9346 61.5337 41.188 62.015C41.454 62.4837 41.587 63.022 41.587 63.63C41.587 64.238 41.454 64.7763 41.188 65.245C40.9346 65.7137 40.58 66.0873 40.124 66.366C39.6806 66.632 39.174 66.765 38.604 66.765C38.034 66.765 37.521 66.632 37.065 66.366C36.6216 66.0873 36.267 65.7137 36.001 65.245C35.7476 64.7763 35.621 64.238 35.621 63.63ZM46.734 64.58V59.26H45.214V64.77C45.214 65.8087 45.4864 66.6383 46.031 67.259C46.5757 67.8797 47.304 68.19 48.216 68.19C48.7987 68.19 49.3054 68.0633 49.736 67.81C50.1667 67.544 50.5277 67.1513 50.819 66.632V68H52.339V59.26H50.819V64.58C50.819 65.0107 50.724 65.3907 50.534 65.72C50.3567 66.0493 50.097 66.309 49.755 66.499C49.4257 66.6763 49.0394 66.765 48.596 66.765C47.988 66.765 47.5257 66.575 47.209 66.195C46.8924 65.815 46.734 65.2767 46.734 64.58ZM53.8665 59.26V60.685H58.2365V59.26H53.8665ZM55.2915 56.22V68H56.8115V56.22H55.2915ZM64.6972 63.63C64.6972 64.504 64.8935 65.2893 65.2862 65.986C65.6915 66.67 66.2362 67.2083 66.9202 67.601C67.6042 67.9937 68.3705 68.19 69.2192 68.19C70.0805 68.19 70.8469 67.9937 71.5182 67.601C72.2022 67.2083 72.7405 66.67 73.1332 65.986C73.5385 65.2893 73.7412 64.504 73.7412 63.63C73.7412 62.7433 73.5385 61.958 73.1332 61.274C72.7405 60.59 72.2022 60.0517 71.5182 59.659C70.8469 59.2663 70.0805 59.07 69.2192 59.07C68.3705 59.07 67.6042 59.2663 66.9202 59.659C66.2362 60.0517 65.6915 60.59 65.2862 61.274C64.8935 61.958 64.6972 62.7433 64.6972 63.63ZM66.2362 63.63C66.2362 63.022 66.3629 62.4837 66.6162 62.015C66.8822 61.5337 67.2369 61.16 67.6802 60.894C68.1362 60.628 68.6492 60.495 69.2192 60.495C69.7892 60.495 70.2959 60.628 70.7392 60.894C71.1952 61.16 71.5499 61.5337 71.8032 62.015C72.0692 62.4837 72.2022 63.022 72.2022 63.63C72.2022 64.238 72.0692 64.7763 71.8032 65.245C71.5499 65.7137 71.1952 66.0873 70.7392 66.366C70.2959 66.632 69.7892 66.765 69.2192 66.765C68.6492 66.765 68.1362 66.632 67.6802 66.366C67.2369 66.0873 66.8822 65.7137 66.6162 65.245C66.3629 64.7763 66.2362 64.238 66.2362 63.63ZM75.1643 59.26V60.685H79.5343V59.26H75.1643ZM79.3823 55.004L80.2183 53.75C80.1296 53.6233 80.0029 53.503 79.8383 53.389C79.6863 53.275 79.5026 53.18 79.2873 53.104C79.0719 53.028 78.8249 52.99 78.5463 52.99C78.0143 52.99 77.5583 53.104 77.1783 53.332C76.8109 53.5473 76.5259 53.8767 76.3233 54.32C76.1206 54.7633 76.0193 55.3333 76.0193 56.03V68H77.5393V56.22C77.5393 55.802 77.5773 55.4663 77.6533 55.213C77.7293 54.9597 77.8306 54.7823 77.9573 54.681C78.0966 54.567 78.2613 54.51 78.4513 54.51C78.6033 54.51 78.7616 54.5417 78.9263 54.605C79.1036 54.6557 79.2556 54.7887 79.3823 55.004ZM95.4931 63.63C95.4931 62.7433 95.3221 61.9643 94.9801 61.293C94.6381 60.6217 94.1631 60.096 93.5551 59.716C92.9598 59.336 92.2821 59.146 91.5221 59.146C91.1928 59.146 90.8571 59.1903 90.5151 59.279C90.1858 59.355 89.8628 59.4753 89.5461 59.64L90.4391 56.125H95.4551V54.7H89.1851L87.4371 61.787C87.8931 61.4703 88.2921 61.2297 88.6341 61.065C88.9888 60.8877 89.3371 60.7673 89.6791 60.704C90.0338 60.628 90.4201 60.59 90.8381 60.59C91.4081 60.59 91.9148 60.7167 92.3581 60.97C92.8141 61.2233 93.1688 61.578 93.4221 62.034C93.6881 62.49 93.8211 63.022 93.8211 63.63C93.8211 64.238 93.7008 64.77 93.4601 65.226C93.2321 65.682 92.8964 66.0367 92.4531 66.29C92.0098 66.5433 91.4714 66.67 90.8381 66.67C90.3568 66.67 89.8944 66.5687 89.4511 66.366C89.0078 66.1507 88.6151 65.8783 88.2731 65.549C87.9438 65.207 87.6778 64.846 87.4751 64.466L86.1071 65.397C86.3984 65.9037 86.7531 66.3723 87.1711 66.803C87.6018 67.221 88.1148 67.5567 88.7101 67.81C89.3181 68.0633 90.0274 68.19 90.8381 68.19C91.4841 68.19 92.0858 68.095 92.6431 67.905C93.2004 67.715 93.6944 67.43 94.1251 67.05C94.5558 66.67 94.8914 66.195 95.1321 65.625C95.3728 65.055 95.4931 64.39 95.4931 63.63ZM104.428 61.35C104.428 60.3493 104.643 59.4563 105.074 58.671C105.517 57.8857 106.119 57.265 106.879 56.809C107.639 56.353 108.5 56.125 109.463 56.125C110.438 56.125 111.3 56.353 112.047 56.809C112.807 57.265 113.402 57.8857 113.833 58.671C114.276 59.4563 114.498 60.3493 114.498 61.35C114.498 62.3507 114.276 63.2437 113.833 64.029C113.402 64.8143 112.807 65.435 112.047 65.891C111.3 66.347 110.438 66.575 109.463 66.575C108.5 66.575 107.639 66.347 106.879 65.891C106.119 65.435 105.517 64.8143 105.074 64.029C104.643 63.2437 104.428 62.3507 104.428 61.35ZM102.718 61.35C102.718 62.3127 102.883 63.212 103.212 64.048C103.554 64.884 104.029 65.6123 104.637 66.233C105.245 66.841 105.961 67.3223 106.784 67.677C107.607 68.019 108.5 68.19 109.463 68.19C110.438 68.19 111.331 68.019 112.142 67.677C112.965 67.3223 113.681 66.841 114.289 66.233C114.897 65.6123 115.366 64.884 115.695 64.048C116.037 63.212 116.208 62.3127 116.208 61.35C116.208 60.3747 116.037 59.4753 115.695 58.652C115.366 57.816 114.897 57.094 114.289 56.486C113.681 55.8653 112.965 55.384 112.142 55.042C111.331 54.6873 110.438 54.51 109.463 54.51C108.5 54.51 107.607 54.6873 106.784 55.042C105.961 55.384 105.245 55.8653 104.637 56.486C104.029 57.094 103.554 57.816 103.212 58.652C102.883 59.4753 102.718 60.3747 102.718 61.35ZM117.247 59.26L121.427 68.665L125.607 59.26H123.897L121.427 65.435L118.957 59.26H117.247ZM130.144 68.19C131.081 68.19 131.892 68.0063 132.576 67.639C133.273 67.259 133.849 66.7017 134.305 65.967L133.07 65.188C132.753 65.72 132.367 66.119 131.911 66.385C131.455 66.6383 130.929 66.765 130.334 66.765C129.739 66.765 129.232 66.6383 128.814 66.385C128.396 66.1317 128.079 65.7643 127.864 65.283C127.649 64.8017 127.541 64.219 127.541 63.535C127.554 62.8637 127.668 62.3 127.883 61.844C128.111 61.3753 128.428 61.0207 128.833 60.78C129.251 60.5267 129.751 60.4 130.334 60.4C130.828 60.4 131.259 60.5077 131.626 60.723C131.993 60.9383 132.278 61.236 132.481 61.616C132.696 61.996 132.804 62.4457 132.804 62.965C132.804 63.0537 132.785 63.1677 132.747 63.307C132.709 63.4337 132.671 63.5287 132.633 63.592L133.241 62.718H126.971V64.01H134.438C134.438 63.9847 134.438 63.9277 134.438 63.839C134.451 63.7377 134.457 63.6427 134.457 63.554C134.457 62.6293 134.292 61.8313 133.963 61.16C133.634 60.4887 133.159 59.9757 132.538 59.621C131.93 59.2537 131.195 59.07 130.334 59.07C129.473 59.07 128.713 59.26 128.054 59.64C127.408 60.02 126.901 60.552 126.534 61.236C126.179 61.92 126.002 62.718 126.002 63.63C126.002 64.5293 126.173 65.321 126.515 66.005C126.87 66.689 127.357 67.2273 127.978 67.62C128.611 68 129.333 68.19 130.144 68.19ZM138.06 59.26H136.54V68H138.06V59.26ZM140.701 60.932L141.537 59.678C141.309 59.4373 141.056 59.279 140.777 59.203C140.511 59.1143 140.22 59.07 139.903 59.07C139.498 59.07 139.099 59.2283 138.706 59.545C138.314 59.8617 137.991 60.2923 137.737 60.837C137.497 61.369 137.376 61.9833 137.376 62.68H138.06C138.06 62.262 138.098 61.8883 138.174 61.559C138.263 61.2297 138.415 60.97 138.63 60.78C138.846 60.59 139.143 60.495 139.523 60.495C139.777 60.495 139.986 60.533 140.15 60.609C140.315 60.6723 140.499 60.78 140.701 60.932ZM143.737 65.302C143.737 64.9853 143.813 64.713 143.965 64.485C144.117 64.257 144.345 64.0797 144.649 63.953C144.966 63.8263 145.371 63.763 145.865 63.763C146.397 63.763 146.897 63.8327 147.366 63.972C147.835 64.0987 148.291 64.314 148.734 64.618V63.725C148.645 63.611 148.474 63.4653 148.221 63.288C147.968 63.098 147.626 62.9333 147.195 62.794C146.777 62.642 146.251 62.566 145.618 62.566C144.541 62.566 143.699 62.8257 143.091 63.345C142.496 63.8517 142.198 64.5293 142.198 65.378C142.198 65.9733 142.337 66.48 142.616 66.898C142.895 67.316 143.262 67.639 143.718 67.867C144.187 68.0823 144.687 68.19 145.219 68.19C145.7 68.19 146.182 68.1013 146.663 67.924C147.157 67.7467 147.569 67.4743 147.898 67.107C148.24 66.7397 148.411 66.2773 148.411 65.72L148.107 64.58C148.107 65.036 147.993 65.4413 147.765 65.796C147.55 66.138 147.252 66.404 146.872 66.594C146.505 66.784 146.087 66.879 145.618 66.879C145.251 66.879 144.921 66.822 144.63 66.708C144.351 66.5813 144.13 66.3977 143.965 66.157C143.813 65.9163 143.737 65.6313 143.737 65.302ZM143.509 61.274C143.648 61.1727 143.838 61.0523 144.079 60.913C144.32 60.7737 144.611 60.6533 144.953 60.552C145.308 60.4507 145.7 60.4 146.131 60.4C146.397 60.4 146.65 60.4253 146.891 60.476C147.132 60.5267 147.341 60.609 147.518 60.723C147.708 60.837 147.854 60.9953 147.955 61.198C148.056 61.388 148.107 61.635 148.107 61.939V68H149.627V61.73C149.627 61.16 149.481 60.6787 149.19 60.286C148.911 59.8933 148.512 59.5957 147.993 59.393C147.486 59.1777 146.891 59.07 146.207 59.07C145.396 59.07 144.7 59.1903 144.117 59.431C143.547 59.6717 143.097 59.9123 142.768 60.153L143.509 61.274ZM152.2 53.18V68H153.72V53.18H152.2ZM156.579 53.18V68H158.099V53.18H156.579ZM167.243 63.972L165.951 64.846C166.243 65.4287 166.616 65.9797 167.072 66.499C167.541 67.0057 168.079 67.4173 168.687 67.734C169.308 68.038 169.979 68.19 170.701 68.19C171.233 68.19 171.74 68.1013 172.221 67.924C172.715 67.7467 173.152 67.4933 173.532 67.164C173.925 66.8347 174.229 66.4357 174.444 65.967C174.672 65.4983 174.786 64.9727 174.786 64.39C174.786 63.782 174.679 63.2627 174.463 62.832C174.248 62.3887 173.969 62.015 173.627 61.711C173.298 61.3943 172.937 61.1347 172.544 60.932C172.152 60.7293 171.778 60.5647 171.423 60.438C170.651 60.172 170.036 59.906 169.58 59.64C169.137 59.3613 168.82 59.07 168.63 58.766C168.44 58.4493 168.345 58.1073 168.345 57.74C168.345 57.3093 168.51 56.923 168.839 56.581C169.169 56.2263 169.694 56.049 170.416 56.049C170.936 56.049 171.373 56.1503 171.727 56.353C172.095 56.5557 172.405 56.8153 172.658 57.132C172.912 57.4487 173.121 57.7717 173.285 58.101L174.672 57.303C174.457 56.8343 174.159 56.391 173.779 55.973C173.399 55.5423 172.937 55.194 172.392 54.928C171.86 54.6493 171.233 54.51 170.511 54.51C169.764 54.51 169.099 54.662 168.516 54.966C167.934 55.2573 167.478 55.6627 167.148 56.182C166.819 56.7013 166.654 57.2903 166.654 57.949C166.654 58.557 166.768 59.07 166.996 59.488C167.237 59.906 167.541 60.2607 167.908 60.552C168.276 60.8307 168.662 61.065 169.067 61.255C169.473 61.4323 169.84 61.578 170.169 61.692C170.676 61.8693 171.151 62.072 171.594 62.3C172.05 62.5153 172.418 62.8003 172.696 63.155C172.975 63.5097 173.114 63.9847 173.114 64.58C173.114 65.188 172.899 65.6883 172.468 66.081C172.038 66.4737 171.468 66.67 170.758 66.67C170.226 66.67 169.751 66.556 169.333 66.328C168.915 66.1 168.535 65.7833 168.193 65.378C167.864 64.9727 167.547 64.504 167.243 63.972ZM175.734 59.26V60.685H180.104V59.26H175.734ZM177.159 56.22V68H178.679V56.22H177.159ZM182.312 65.302C182.312 64.9853 182.388 64.713 182.54 64.485C182.692 64.257 182.92 64.0797 183.224 63.953C183.541 63.8263 183.946 63.763 184.44 63.763C184.972 63.763 185.472 63.8327 185.941 63.972C186.41 64.0987 186.866 64.314 187.309 64.618V63.725C187.22 63.611 187.049 63.4653 186.796 63.288C186.543 63.098 186.201 62.9333 185.77 62.794C185.352 62.642 184.826 62.566 184.193 62.566C183.116 62.566 182.274 62.8257 181.666 63.345C181.071 63.8517 180.773 64.5293 180.773 65.378C180.773 65.9733 180.912 66.48 181.191 66.898C181.47 67.316 181.837 67.639 182.293 67.867C182.762 68.0823 183.262 68.19 183.794 68.19C184.275 68.19 184.757 68.1013 185.238 67.924C185.732 67.7467 186.144 67.4743 186.473 67.107C186.815 66.7397 186.986 66.2773 186.986 65.72L186.682 64.58C186.682 65.036 186.568 65.4413 186.34 65.796C186.125 66.138 185.827 66.404 185.447 66.594C185.08 66.784 184.662 66.879 184.193 66.879C183.826 66.879 183.496 66.822 183.205 66.708C182.926 66.5813 182.705 66.3977 182.54 66.157C182.388 65.9163 182.312 65.6313 182.312 65.302ZM182.084 61.274C182.223 61.1727 182.413 61.0523 182.654 60.913C182.895 60.7737 183.186 60.6533 183.528 60.552C183.883 60.4507 184.275 60.4 184.706 60.4C184.972 60.4 185.225 60.4253 185.466 60.476C185.707 60.5267 185.916 60.609 186.093 60.723C186.283 60.837 186.429 60.9953 186.53 61.198C186.631 61.388 186.682 61.635 186.682 61.939V68H188.202V61.73C188.202 61.16 188.056 60.6787 187.765 60.286C187.486 59.8933 187.087 59.5957 186.568 59.393C186.061 59.1777 185.466 59.07 184.782 59.07C183.971 59.07 183.275 59.1903 182.692 59.431C182.122 59.6717 181.672 59.9123 181.343 60.153L182.084 61.274ZM192.296 59.26H190.776V68H192.296V59.26ZM194.937 60.932L195.773 59.678C195.545 59.4373 195.291 59.279 195.013 59.203C194.747 59.1143 194.455 59.07 194.139 59.07C193.733 59.07 193.334 59.2283 192.942 59.545C192.549 59.8617 192.226 60.2923 191.973 60.837C191.732 61.369 191.612 61.9833 191.612 62.68H192.296C192.296 62.262 192.334 61.8883 192.41 61.559C192.498 61.2297 192.65 60.97 192.866 60.78C193.081 60.59 193.379 60.495 193.759 60.495C194.012 60.495 194.221 60.533 194.386 60.609C194.55 60.6723 194.734 60.78 194.937 60.932ZM3.89498 87.445L8.45499 94H10.45L5.69998 87.445H3.89498ZM1.51998 80.7V94H3.13498V80.7H1.51998ZM2.41298 82.125H5.12998C5.69999 82.125 6.20032 82.2263 6.63098 82.429C7.07432 82.6317 7.41632 82.923 7.65699 83.303C7.91032 83.683 8.03698 84.1453 8.03698 84.69C8.03698 85.2347 7.91032 85.697 7.65699 86.077C7.41632 86.457 7.07432 86.7483 6.63098 86.951C6.20032 87.1537 5.69999 87.255 5.12998 87.255H2.41298V88.68H5.12998C5.99132 88.68 6.75765 88.5217 7.42899 88.205C8.11299 87.8757 8.65132 87.4133 9.04398 86.818C9.44932 86.21 9.65199 85.5007 9.65199 84.69C9.65199 83.8667 9.44932 83.1573 9.04398 82.562C8.65132 81.9667 8.11299 81.5107 7.42899 81.194C6.75765 80.8647 5.99132 80.7 5.12998 80.7H2.41298V82.125ZM12.7408 91.302C12.7408 90.9853 12.8168 90.713 12.9688 90.485C13.1208 90.257 13.3488 90.0797 13.6528 89.953C13.9695 89.8263 14.3748 89.763 14.8688 89.763C15.4008 89.763 15.9012 89.8327 16.3698 89.972C16.8385 90.0987 17.2945 90.314 17.7378 90.618V89.725C17.6492 89.611 17.4782 89.4653 17.2248 89.288C16.9715 89.098 16.6295 88.9333 16.1988 88.794C15.7808 88.642 15.2552 88.566 14.6218 88.566C13.5452 88.566 12.7028 88.8257 12.0948 89.345C11.4995 89.8517 11.2018 90.5293 11.2018 91.378C11.2018 91.9733 11.3412 92.48 11.6198 92.898C11.8985 93.316 12.2658 93.639 12.7218 93.867C13.1905 94.0823 13.6908 94.19 14.2228 94.19C14.7042 94.19 15.1855 94.1013 15.6668 93.924C16.1608 93.7467 16.5725 93.4743 16.9018 93.107C17.2438 92.7397 17.4148 92.2773 17.4148 91.72L17.1108 90.58C17.1108 91.036 16.9968 91.4413 16.7688 91.796C16.5535 92.138 16.2558 92.404 15.8758 92.594C15.5085 92.784 15.0905 92.879 14.6218 92.879C14.2545 92.879 13.9252 92.822 13.6338 92.708C13.3552 92.5813 13.1335 92.3977 12.9688 92.157C12.8168 91.9163 12.7408 91.6313 12.7408 91.302ZM12.5128 87.274C12.6522 87.1727 12.8422 87.0523 13.0828 86.913C13.3235 86.7737 13.6148 86.6533 13.9568 86.552C14.3115 86.4507 14.7042 86.4 15.1348 86.4C15.4008 86.4 15.6542 86.4253 15.8948 86.476C16.1355 86.5267 16.3445 86.609 16.5218 86.723C16.7118 86.837 16.8575 86.9953 16.9588 87.198C17.0602 87.388 17.1108 87.635 17.1108 87.939V94H18.6308V87.73C18.6308 87.16 18.4852 86.6787 18.1938 86.286C17.9152 85.8933 17.5162 85.5957 16.9968 85.393C16.4902 85.1777 15.8948 85.07 15.2108 85.07C14.4002 85.07 13.7035 85.1903 13.1208 85.431C12.5508 85.6717 12.1012 85.9123 11.7718 86.153L12.5128 87.274ZM19.8743 85.26V86.685H24.2443V85.26H19.8743ZM21.2993 82.22V94H22.8193V82.22H21.2993ZM25.7687 81.65C25.7687 81.9287 25.8701 82.1757 26.0727 82.391C26.2881 82.5937 26.5351 82.695 26.8137 82.695C27.1051 82.695 27.3521 82.5937 27.5547 82.391C27.7574 82.1757 27.8587 81.9287 27.8587 81.65C27.8587 81.3587 27.7574 81.1117 27.5547 80.909C27.3521 80.7063 27.1051 80.605 26.8137 80.605C26.5351 80.605 26.2881 80.7063 26.0727 80.909C25.8701 81.1117 25.7687 81.3587 25.7687 81.65ZM26.0537 85.26V94H27.5737V85.26H26.0537ZM36.3093 88.68V94H37.8293V88.49C37.8293 87.4387 37.5569 86.609 37.0123 86.001C36.4803 85.3803 35.7519 85.07 34.8273 85.07C34.2573 85.07 33.7506 85.1967 33.3073 85.45C32.8766 85.7033 32.5156 86.096 32.2243 86.628V85.26H30.7043V94H32.2243V88.68C32.2243 88.2493 32.3129 87.8693 32.4903 87.54C32.6803 87.2107 32.9399 86.9573 33.2693 86.78C33.6113 86.59 34.0039 86.495 34.4473 86.495C35.0553 86.495 35.5176 86.6787 35.8343 87.046C36.1509 87.4133 36.3093 87.958 36.3093 88.68ZM40.0977 94.57C40.0977 95.3173 40.2814 95.976 40.6487 96.546C41.016 97.1287 41.5227 97.5783 42.1687 97.895C42.8274 98.2117 43.581 98.37 44.4297 98.37C45.1644 98.37 45.861 98.199 46.5197 97.857C47.1784 97.515 47.7167 97.002 48.1347 96.318C48.5527 95.6467 48.7617 94.8107 48.7617 93.81V85.26H47.2417V93.81C47.2417 94.5447 47.096 95.14 46.8047 95.596C46.526 96.0647 46.1714 96.4067 45.7407 96.622C45.31 96.8373 44.873 96.945 44.4297 96.945C43.8597 96.945 43.3657 96.831 42.9477 96.603C42.5297 96.3877 42.2067 96.0963 41.9787 95.729C41.7507 95.3743 41.6367 94.988 41.6367 94.57H40.0977ZM39.9267 89.63C39.9267 90.5673 40.123 91.378 40.5157 92.062C40.9084 92.746 41.434 93.2717 42.0927 93.639C42.7514 94.0063 43.4734 94.19 44.2587 94.19C44.9934 94.19 45.633 94.0063 46.1777 93.639C46.7224 93.2717 47.1467 92.746 47.4507 92.062C47.7674 91.378 47.9257 90.5673 47.9257 89.63C47.9257 88.68 47.7674 87.8693 47.4507 87.198C47.1467 86.514 46.7224 85.9883 46.1777 85.621C45.633 85.2537 44.9934 85.07 44.2587 85.07C43.4734 85.07 42.7514 85.2537 42.0927 85.621C41.434 85.9883 40.9084 86.514 40.5157 87.198C40.123 87.8693 39.9267 88.68 39.9267 89.63ZM41.4657 89.63C41.4657 88.9587 41.5987 88.3887 41.8647 87.92C42.1434 87.4513 42.5107 87.0967 42.9667 86.856C43.4227 86.6153 43.9167 86.495 44.4487 86.495C44.778 86.495 45.1074 86.5647 45.4367 86.704C45.766 86.8433 46.0637 87.046 46.3297 87.312C46.6084 87.578 46.83 87.9073 46.9947 88.3C47.1594 88.68 47.2417 89.1233 47.2417 89.63C47.2417 90.3013 47.1024 90.8713 46.8237 91.34C46.545 91.8087 46.1904 92.1633 45.7597 92.404C45.329 92.6447 44.892 92.765 44.4487 92.765C43.9167 92.765 43.4227 92.6447 42.9667 92.404C42.5107 92.1633 42.1434 91.8087 41.8647 91.34C41.5987 90.8713 41.4657 90.3013 41.4657 89.63ZM56.5539 85.26V86.685H60.9239V85.26H56.5539ZM60.7719 81.004L61.6079 79.75C61.5193 79.6233 61.3926 79.503 61.2279 79.389C61.0759 79.275 60.8923 79.18 60.6769 79.104C60.4616 79.028 60.2146 78.99 59.9359 78.99C59.4039 78.99 58.9479 79.104 58.5679 79.332C58.2006 79.5473 57.9156 79.8767 57.7129 80.32C57.5103 80.7633 57.4089 81.3333 57.4089 82.03V94H58.9289V82.22C58.9289 81.802 58.9669 81.4663 59.0429 81.213C59.1189 80.9597 59.2203 80.7823 59.3469 80.681C59.4863 80.567 59.6509 80.51 59.8409 80.51C59.9929 80.51 60.1513 80.5417 60.3159 80.605C60.4933 80.6557 60.6453 80.7887 60.7719 81.004ZM61.8955 89.63C61.8955 90.504 62.0918 91.2893 62.4845 91.986C62.8898 92.67 63.4345 93.2083 64.1185 93.601C64.8025 93.9937 65.5688 94.19 66.4175 94.19C67.2788 94.19 68.0451 93.9937 68.7165 93.601C69.4005 93.2083 69.9388 92.67 70.3315 91.986C70.7368 91.2893 70.9395 90.504 70.9395 89.63C70.9395 88.7433 70.7368 87.958 70.3315 87.274C69.9388 86.59 69.4005 86.0517 68.7165 85.659C68.0451 85.2663 67.2788 85.07 66.4175 85.07C65.5688 85.07 64.8025 85.2663 64.1185 85.659C63.4345 86.0517 62.8898 86.59 62.4845 87.274C62.0918 87.958 61.8955 88.7433 61.8955 89.63ZM63.4345 89.63C63.4345 89.022 63.5611 88.4837 63.8145 88.015C64.0805 87.5337 64.4351 87.16 64.8785 86.894C65.3345 86.628 65.8475 86.495 66.4175 86.495C66.9875 86.495 67.4941 86.628 67.9375 86.894C68.3935 87.16 68.7481 87.5337 69.0015 88.015C69.2675 88.4837 69.4005 89.022 69.4005 89.63C69.4005 90.238 69.2675 90.7763 69.0015 91.245C68.7481 91.7137 68.3935 92.0873 67.9375 92.366C67.4941 92.632 66.9875 92.765 66.4175 92.765C65.8475 92.765 65.3345 92.632 64.8785 92.366C64.4351 92.0873 64.0805 91.7137 63.8145 91.245C63.5611 90.7763 63.4345 90.238 63.4345 89.63ZM74.5475 85.26H73.0275V94H74.5475V85.26ZM77.1885 86.932L78.0245 85.678C77.7965 85.4373 77.5432 85.279 77.2645 85.203C76.9985 85.1143 76.7072 85.07 76.3905 85.07C75.9852 85.07 75.5862 85.2283 75.1935 85.545C74.8009 85.8617 74.4779 86.2923 74.2245 86.837C73.9839 87.369 73.8635 87.9833 73.8635 88.68H74.5475C74.5475 88.262 74.5855 87.8883 74.6615 87.559C74.7502 87.2297 74.9022 86.97 75.1175 86.78C75.3329 86.59 75.6305 86.495 76.0105 86.495C76.2639 86.495 76.4729 86.533 76.6375 86.609C76.8022 86.6723 76.9859 86.78 77.1885 86.932ZM86.6045 90.01H93.6345L93.0645 88.49H87.1745L86.6045 90.01ZM90.0815 83.702L92.3615 89.06L92.5135 89.44L94.4515 94H96.2565L90.0815 80.035L83.9065 94H85.7115L87.6875 89.326L87.8395 88.984L90.0815 83.702ZM97.7795 79.18V94H99.2995V79.18H97.7795ZM102.158 79.18V94H103.678V79.18H102.158ZM112.329 80.7V94H119.169V92.48H113.944V80.7H112.329ZM120.027 89.63C120.027 90.504 120.224 91.2893 120.616 91.986C121.022 92.67 121.566 93.2083 122.25 93.601C122.934 93.9937 123.701 94.19 124.549 94.19C125.411 94.19 126.177 93.9937 126.848 93.601C127.532 93.2083 128.071 92.67 128.463 91.986C128.869 91.2893 129.071 90.504 129.071 89.63C129.071 88.7433 128.869 87.958 128.463 87.274C128.071 86.59 127.532 86.0517 126.848 85.659C126.177 85.2663 125.411 85.07 124.549 85.07C123.701 85.07 122.934 85.2663 122.25 85.659C121.566 86.0517 121.022 86.59 120.616 87.274C120.224 87.958 120.027 88.7433 120.027 89.63ZM121.566 89.63C121.566 89.022 121.693 88.4837 121.946 88.015C122.212 87.5337 122.567 87.16 123.01 86.894C123.466 86.628 123.979 86.495 124.549 86.495C125.119 86.495 125.626 86.628 126.069 86.894C126.525 87.16 126.88 87.5337 127.133 88.015C127.399 88.4837 127.532 89.022 127.532 89.63C127.532 90.238 127.399 90.7763 127.133 91.245C126.88 91.7137 126.525 92.0873 126.069 92.366C125.626 92.632 125.119 92.765 124.549 92.765C123.979 92.765 123.466 92.632 123.01 92.366C122.567 92.0873 122.212 91.7137 121.946 91.245C121.693 90.7763 121.566 90.238 121.566 89.63ZM131.843 89.63C131.843 89.022 131.97 88.4837 132.223 88.015C132.489 87.5337 132.844 87.16 133.287 86.894C133.743 86.628 134.256 86.495 134.826 86.495C135.295 86.495 135.732 86.571 136.137 86.723C136.555 86.8623 136.916 87.0523 137.22 87.293C137.524 87.5337 137.74 87.7997 137.866 88.091V86.191C137.562 85.8363 137.125 85.564 136.555 85.374C135.998 85.1713 135.422 85.07 134.826 85.07C133.978 85.07 133.211 85.2663 132.527 85.659C131.843 86.0517 131.299 86.59 130.893 87.274C130.501 87.958 130.304 88.7433 130.304 89.63C130.304 90.504 130.501 91.2893 130.893 91.986C131.299 92.67 131.843 93.2083 132.527 93.601C133.211 93.9937 133.978 94.19 134.826 94.19C135.422 94.19 135.998 94.095 136.555 93.905C137.125 93.7023 137.562 93.4237 137.866 93.069V91.169C137.74 91.4477 137.524 91.7137 137.22 91.967C136.916 92.2077 136.555 92.404 136.137 92.556C135.732 92.6953 135.295 92.765 134.826 92.765C134.256 92.765 133.743 92.632 133.287 92.366C132.844 92.0873 132.489 91.7137 132.223 91.245C131.97 90.7763 131.843 90.238 131.843 89.63ZM140.917 91.302C140.917 90.9853 140.993 90.713 141.145 90.485C141.297 90.257 141.525 90.0797 141.829 89.953C142.145 89.8263 142.551 89.763 143.045 89.763C143.577 89.763 144.077 89.8327 144.546 89.972C145.014 90.0987 145.47 90.314 145.914 90.618V89.725C145.825 89.611 145.654 89.4653 145.401 89.288C145.147 89.098 144.805 88.9333 144.375 88.794C143.957 88.642 143.431 88.566 142.798 88.566C141.721 88.566 140.879 88.8257 140.271 89.345C139.675 89.8517 139.378 90.5293 139.378 91.378C139.378 91.9733 139.517 92.48 139.796 92.898C140.074 93.316 140.442 93.639 140.898 93.867C141.366 94.0823 141.867 94.19 142.399 94.19C142.88 94.19 143.361 94.1013 143.843 93.924C144.337 93.7467 144.748 93.4743 145.078 93.107C145.42 92.7397 145.591 92.2773 145.591 91.72L145.287 90.58C145.287 91.036 145.173 91.4413 144.945 91.796C144.729 92.138 144.432 92.404 144.052 92.594C143.684 92.784 143.266 92.879 142.798 92.879C142.43 92.879 142.101 92.822 141.81 92.708C141.531 92.5813 141.309 92.3977 141.145 92.157C140.993 91.9163 140.917 91.6313 140.917 91.302ZM140.689 87.274C140.828 87.1727 141.018 87.0523 141.259 86.913C141.499 86.7737 141.791 86.6533 142.133 86.552C142.487 86.4507 142.88 86.4 143.311 86.4C143.577 86.4 143.83 86.4253 144.071 86.476C144.311 86.5267 144.52 86.609 144.698 86.723C144.888 86.837 145.033 86.9953 145.135 87.198C145.236 87.388 145.287 87.635 145.287 87.939V94H146.807V87.73C146.807 87.16 146.661 86.6787 146.37 86.286C146.091 85.8933 145.692 85.5957 145.173 85.393C144.666 85.1777 144.071 85.07 143.387 85.07C142.576 85.07 141.879 85.1903 141.297 85.431C140.727 85.6717 140.277 85.9123 139.948 86.153L140.689 87.274ZM149.38 79.18V94H150.9V79.18H149.38ZM160.823 86.97H162.97C163.768 86.97 164.459 86.856 165.041 86.628C165.637 86.4 166.099 86.0643 166.428 85.621C166.758 85.1777 166.922 84.6457 166.922 84.025C166.922 83.265 166.758 82.6443 166.428 82.163C166.099 81.669 165.637 81.3017 165.041 81.061C164.459 80.8203 163.768 80.7 162.97 80.7H159.55V94H163.16C164.022 94 164.788 93.8607 165.459 93.582C166.143 93.2907 166.682 92.86 167.074 92.29C167.48 91.7073 167.682 90.979 167.682 90.105C167.682 89.497 167.568 88.9713 167.34 88.528C167.112 88.0847 166.789 87.7237 166.371 87.445C165.966 87.1537 165.491 86.9383 164.946 86.799C164.402 86.6597 163.806 86.59 163.16 86.59H160.823V87.483H163.16C163.591 87.483 163.984 87.54 164.338 87.654C164.693 87.7553 164.997 87.9137 165.25 88.129C165.516 88.3443 165.719 88.6103 165.858 88.927C165.998 89.2437 166.067 89.6047 166.067 90.01C166.067 90.5547 165.941 91.017 165.687 91.397C165.447 91.777 165.105 92.0683 164.661 92.271C164.231 92.4737 163.73 92.575 163.16 92.575H161.165V82.125H162.97C163.642 82.125 164.199 82.3023 164.642 82.657C165.086 82.999 165.307 83.4867 165.307 84.12C165.307 84.538 165.206 84.8927 165.003 85.184C164.801 85.4753 164.522 85.697 164.167 85.849C163.813 86.001 163.414 86.077 162.97 86.077H160.823V86.97ZM171.57 90.58V85.26H170.05V90.77C170.05 91.8087 170.322 92.6383 170.867 93.259C171.412 93.8797 172.14 94.19 173.052 94.19C173.635 94.19 174.141 94.0633 174.572 93.81C175.003 93.544 175.364 93.1513 175.655 92.632V94H177.175V85.26H175.655V90.58C175.655 91.0107 175.56 91.3907 175.37 91.72C175.193 92.0493 174.933 92.309 174.591 92.499C174.262 92.6763 173.875 92.765 173.432 92.765C172.824 92.765 172.362 92.575 172.045 92.195C171.728 91.815 171.57 91.2767 171.57 90.58ZM180.393 91.321L179.196 92.062C179.361 92.404 179.602 92.7397 179.918 93.069C180.248 93.3983 180.647 93.6707 181.115 93.886C181.584 94.0887 182.11 94.19 182.692 94.19C183.592 94.19 184.314 93.9367 184.858 93.43C185.416 92.9233 185.694 92.29 185.694 91.53C185.694 91.0107 185.568 90.5863 185.314 90.257C185.074 89.9277 184.744 89.649 184.326 89.421C183.908 89.1803 183.446 88.9587 182.939 88.756C182.635 88.6293 182.344 88.4963 182.065 88.357C181.787 88.2177 181.559 88.0593 181.381 87.882C181.204 87.7047 181.115 87.502 181.115 87.274C181.115 86.9827 181.229 86.7673 181.457 86.628C181.685 86.4887 181.958 86.419 182.274 86.419C182.73 86.419 183.136 86.5267 183.49 86.742C183.858 86.9573 184.162 87.2297 184.402 87.559L185.618 86.78C185.441 86.4507 185.194 86.1593 184.877 85.906C184.561 85.6527 184.193 85.45 183.775 85.298C183.37 85.146 182.933 85.07 182.464 85.07C181.996 85.07 181.54 85.1523 181.096 85.317C180.666 85.4817 180.311 85.735 180.032 86.077C179.766 86.419 179.633 86.8497 179.633 87.369C179.633 87.8757 179.76 88.3 180.013 88.642C180.279 88.9713 180.602 89.2437 180.982 89.459C181.375 89.6617 181.761 89.839 182.141 89.991C182.483 90.1177 182.806 90.257 183.11 90.409C183.414 90.5483 183.661 90.7257 183.851 90.941C184.054 91.1437 184.155 91.397 184.155 91.701C184.155 92.043 184.029 92.3153 183.775 92.518C183.535 92.708 183.199 92.803 182.768 92.803C182.414 92.803 182.084 92.7397 181.78 92.613C181.489 92.4737 181.229 92.29 181.001 92.062C180.773 91.834 180.571 91.587 180.393 91.321ZM187.695 81.65C187.695 81.9287 187.797 82.1757 187.999 82.391C188.215 82.5937 188.462 82.695 188.74 82.695C189.032 82.695 189.279 82.5937 189.481 82.391C189.684 82.1757 189.785 81.9287 189.785 81.65C189.785 81.3587 189.684 81.1117 189.481 80.909C189.279 80.7063 189.032 80.605 188.74 80.605C188.462 80.605 188.215 80.7063 187.999 80.909C187.797 81.1117 187.695 81.3587 187.695 81.65ZM187.98 85.26V94H189.5V85.26H187.98ZM198.236 88.68V94H199.756V88.49C199.756 87.4387 199.484 86.609 198.939 86.001C198.407 85.3803 197.679 85.07 196.754 85.07C196.184 85.07 195.677 85.1967 195.234 85.45C194.803 85.7033 194.442 86.096 194.151 86.628V85.26H192.631V94H194.151V88.68C194.151 88.2493 194.24 87.8693 194.417 87.54C194.607 87.2107 194.867 86.9573 195.196 86.78C195.538 86.59 195.931 86.495 196.374 86.495C196.982 86.495 197.444 86.6787 197.761 87.046C198.078 87.4133 198.236 87.958 198.236 88.68ZM205.995 94.19C206.933 94.19 207.743 94.0063 208.427 93.639C209.124 93.259 209.7 92.7017 210.156 91.967L208.921 91.188C208.605 91.72 208.218 92.119 207.762 92.385C207.306 92.6383 206.781 92.765 206.185 92.765C205.59 92.765 205.083 92.6383 204.665 92.385C204.247 92.1317 203.931 91.7643 203.715 91.283C203.5 90.8017 203.392 90.219 203.392 89.535C203.405 88.8637 203.519 88.3 203.734 87.844C203.962 87.3753 204.279 87.0207 204.684 86.78C205.102 86.5267 205.603 86.4 206.185 86.4C206.679 86.4 207.11 86.5077 207.477 86.723C207.845 86.9383 208.13 87.236 208.332 87.616C208.548 87.996 208.655 88.4457 208.655 88.965C208.655 89.0537 208.636 89.1677 208.598 89.307C208.56 89.4337 208.522 89.5287 208.484 89.592L209.092 88.718H202.822V90.01H210.289C210.289 89.9847 210.289 89.9277 210.289 89.839C210.302 89.7377 210.308 89.6427 210.308 89.554C210.308 88.6293 210.144 87.8313 209.814 87.16C209.485 86.4887 209.01 85.9757 208.389 85.621C207.781 85.2537 207.047 85.07 206.185 85.07C205.324 85.07 204.564 85.26 203.905 85.64C203.259 86.02 202.753 86.552 202.385 87.236C202.031 87.92 201.853 88.718 201.853 89.63C201.853 90.5293 202.024 91.321 202.366 92.005C202.721 92.689 203.209 93.2273 203.829 93.62C204.463 94 205.185 94.19 205.995 94.19ZM212.753 91.321L211.556 92.062C211.72 92.404 211.961 92.7397 212.278 93.069C212.607 93.3983 213.006 93.6707 213.475 93.886C213.943 94.0887 214.469 94.19 215.052 94.19C215.951 94.19 216.673 93.9367 217.218 93.43C217.775 92.9233 218.054 92.29 218.054 91.53C218.054 91.0107 217.927 90.5863 217.674 90.257C217.433 89.9277 217.104 89.649 216.686 89.421C216.268 89.1803 215.805 88.9587 215.299 88.756C214.995 88.6293 214.703 88.4963 214.425 88.357C214.146 88.2177 213.918 88.0593 213.741 87.882C213.563 87.7047 213.475 87.502 213.475 87.274C213.475 86.9827 213.589 86.7673 213.817 86.628C214.045 86.4887 214.317 86.419 214.634 86.419C215.09 86.419 215.495 86.5267 215.85 86.742C216.217 86.9573 216.521 87.2297 216.762 87.559L217.978 86.78C217.8 86.4507 217.553 86.1593 217.237 85.906C216.92 85.6527 216.553 85.45 216.135 85.298C215.729 85.146 215.292 85.07 214.824 85.07C214.355 85.07 213.899 85.1523 213.456 85.317C213.025 85.4817 212.67 85.735 212.392 86.077C212.126 86.419 211.993 86.8497 211.993 87.369C211.993 87.8757 212.119 88.3 212.373 88.642C212.639 88.9713 212.962 89.2437 213.342 89.459C213.734 89.6617 214.121 89.839 214.501 89.991C214.843 90.1177 215.166 90.257 215.47 90.409C215.774 90.5483 216.021 90.7257 216.211 90.941C216.413 91.1437 216.515 91.397 216.515 91.701C216.515 92.043 216.388 92.3153 216.135 92.518C215.894 92.708 215.558 92.803 215.128 92.803C214.773 92.803 214.444 92.7397 214.14 92.613C213.848 92.4737 213.589 92.29 213.361 92.062C213.133 91.834 212.93 91.587 212.753 91.321ZM220.416 91.321L219.219 92.062C219.384 92.404 219.624 92.7397 219.941 93.069C220.27 93.3983 220.669 93.6707 221.138 93.886C221.607 94.0887 222.132 94.19 222.715 94.19C223.614 94.19 224.336 93.9367 224.881 93.43C225.438 92.9233 225.717 92.29 225.717 91.53C225.717 91.0107 225.59 90.5863 225.337 90.257C225.096 89.9277 224.767 89.649 224.349 89.421C223.931 89.1803 223.469 88.9587 222.962 88.756C222.658 88.6293 222.367 88.4963 222.088 88.357C221.809 88.2177 221.581 88.0593 221.404 87.882C221.227 87.7047 221.138 87.502 221.138 87.274C221.138 86.9827 221.252 86.7673 221.48 86.628C221.708 86.4887 221.98 86.419 222.297 86.419C222.753 86.419 223.158 86.5267 223.513 86.742C223.88 86.9573 224.184 87.2297 224.425 87.559L225.641 86.78C225.464 86.4507 225.217 86.1593 224.9 85.906C224.583 85.6527 224.216 85.45 223.798 85.298C223.393 85.146 222.956 85.07 222.487 85.07C222.018 85.07 221.562 85.1523 221.119 85.317C220.688 85.4817 220.334 85.735 220.055 86.077C219.789 86.419 219.656 86.8497 219.656 87.369C219.656 87.8757 219.783 88.3 220.036 88.642C220.302 88.9713 220.625 89.2437 221.005 89.459C221.398 89.6617 221.784 89.839 222.164 89.991C222.506 90.1177 222.829 90.257 223.133 90.409C223.437 90.5483 223.684 90.7257 223.874 90.941C224.077 91.1437 224.178 91.397 224.178 91.701C224.178 92.043 224.051 92.3153 223.798 92.518C223.557 92.708 223.222 92.803 222.791 92.803C222.436 92.803 222.107 92.7397 221.803 92.613C221.512 92.4737 221.252 92.29 221.024 92.062C220.796 91.834 220.593 91.587 220.416 91.321ZM228.098 93.24C228.098 93.5187 228.199 93.7657 228.402 93.981C228.617 94.1837 228.864 94.285 229.143 94.285C229.434 94.285 229.681 94.1837 229.884 93.981C230.087 93.7657 230.188 93.5187 230.188 93.24C230.188 92.9487 230.087 92.7017 229.884 92.499C229.681 92.2963 229.434 92.195 229.143 92.195C228.864 92.195 228.617 92.2963 228.402 92.499C228.199 92.7017 228.098 92.9487 228.098 93.24Z" fill="#64646A"/>
<defs>
<clipPath id="clip0_1_42">
<rect width="36" height="36" fill="white"/>
</clipPath>
<clipPath id="clip1_1_42">
<rect width="36" height="36" fill="white" transform="translate(36)"/>
</clipPath>
<clipPath id="clip2_1_42">
<rect width="36" height="36" fill="white" transform="translate(72)"/>
</clipPath>
<clipPath id="clip3_1_42">
<rect width="36" height="36" fill="white" transform="translate(108)"/>
</clipPath>
<clipPath id="clip4_1_42">
<rect width="36" height="36" fill="white" transform="translate(144)"/>
</clipPath>
</defs>
</svg>
